<svg xmlns="http://www.w3.org/2000/svg" xmlns:xlink="http://www.w3.org/1999/xlink" width="500" zoomAndPan="magnify" viewBox="0 0 375 374.999991" height="500" preserveAspectRatio="xMidYMid meet" version="1.2"><defs><clipPath id="01267141a6"><path d="M 78 102 L 232 102 L 232 275 L 78 275 Z M 78 102 "/></clipPath><clipPath id="62b0426bfb"><path d="M 130.101562 291.851562 L 60.847656 238.105469 L 179.886719 84.71875 L 249.144531 138.464844 Z M 130.101562 291.851562 "/></clipPath><clipPath id="a9704c2583"><path d="M 95.472656 264.980469 C 86.289062 257.851562 80.3125 247.367188 78.859375 235.835938 C 77.40625 224.300781 80.59375 212.664062 87.71875 203.480469 L 152.898438 119.496094 C 160.023438 110.3125 170.507812 104.335938 182.042969 102.882812 C 193.574219 101.429688 205.214844 104.617188 214.398438 111.742188 C 223.582031 118.871094 229.558594 129.355469 231.011719 140.886719 C 232.464844 152.421875 229.277344 164.058594 222.152344 173.242188 L 156.976562 257.226562 C 149.847656 266.410156 139.363281 272.386719 127.828125 273.839844 C 116.296875 275.292969 104.65625 272.105469 95.472656 264.980469 Z M 95.472656 264.980469 "/></clipPath><clipPath id="a9d46fc836"><path d="M 205 102 L 358 102 L 358 273 L 205 273 Z M 205 102 "/></clipPath><clipPath id="7eed6489f0"><path d="M 257.414062 290.121094 L 188.15625 236.375 L 305.941406 84.609375 L 375.195312 138.355469 Z M 257.414062 290.121094 "/></clipPath><clipPath id="bbaab48bd4"><path d="M 222.785156 263.25 C 213.601562 256.121094 207.625 245.636719 206.171875 234.105469 C 204.714844 222.570312 207.902344 210.929688 215.03125 201.746094 L 278.867188 119.496094 C 285.992188 110.3125 296.476562 104.335938 308.011719 102.878906 C 319.542969 101.425781 331.183594 104.613281 340.367188 111.742188 C 349.550781 118.867188 355.527344 129.351562 356.980469 140.886719 C 358.433594 152.417969 355.246094 164.058594 348.121094 173.242188 L 284.285156 255.496094 C 277.160156 264.679688 266.675781 270.65625 255.140625 272.109375 C 243.609375 273.5625 231.96875 270.375 222.785156 263.25 Z M 222.785156 263.25 "/></clipPath><clipPath id="23cb63f80c"><path d="M 17 100 L 167 100 L 167 275 L 17 275 Z M 17 100 "/></clipPath><clipPath id="6974be3320"><path d="M 0 133.75 L 71.578125 83.140625 L 183.476562 241.398438 L 111.898438 292.007812 Z M 0 133.75 "/></clipPath><clipPath id="56626cd946"><path d="M 35.789062 108.445312 C 45.28125 101.734375 57.050781 99.070312 68.507812 101.035156 C 79.964844 103 90.171875 109.4375 96.882812 118.929688 L 158.0625 205.453125 C 164.773438 214.945312 167.4375 226.714844 165.472656 238.171875 C 163.507812 249.628906 157.070312 259.835938 147.578125 266.550781 C 138.085938 273.261719 126.316406 275.925781 114.859375 273.960938 C 103.402344 271.992188 93.195312 265.558594 86.484375 256.066406 L 25.304688 169.539062 C 18.59375 160.050781 15.929688 148.28125 17.894531 136.820312 C 19.859375 125.363281 26.296875 115.15625 35.789062 108.445312 Z M 35.789062 108.445312 "/></clipPath><clipPath id="7683cf23f6"><path d="M 147 100 L 297 100 L 297 275 L 147 275 Z M 147 100 "/></clipPath><clipPath id="acfb1b011e"><path d="M 130.359375 133.75 L 201.9375 83.140625 L 313.835938 241.398438 L 242.257812 292.007812 Z M 130.359375 133.75 "/></clipPath><clipPath id="bce4cc679f"><path d="M 166.148438 108.445312 C 175.640625 101.734375 187.410156 99.070312 198.867188 101.035156 C 210.324219 103 220.53125 109.4375 227.242188 118.929688 L 288.421875 205.453125 C 295.132812 214.945312 297.796875 226.714844 295.832031 238.171875 C 293.867188 249.628906 287.429688 259.835938 277.9375 266.550781 C 268.445312 273.261719 256.675781 275.925781 245.21875 273.960938 C 233.761719 271.992188 223.554688 265.558594 216.84375 256.066406 L 155.664062 169.539062 C 148.953125 160.050781 146.289062 148.28125 148.253906 136.820312 C 150.21875 125.363281 156.65625 115.15625 166.148438 108.445312 Z M 166.148438 108.445312 "/></clipPath><clipPath id="2d637bba50"><path d="M 271.039062 102.121094 L 356.414062 102.121094 L 356.414062 187.5 L 271.039062 187.5 Z M 271.039062 102.121094 "/></clipPath><clipPath id="d070d0d7e5"><path d="M 313.726562 102.121094 C 290.148438 102.121094 271.039062 121.234375 271.039062 144.8125 C 271.039062 168.386719 290.148438 187.5 313.726562 187.5 C 337.304688 187.5 356.414062 168.386719 356.414062 144.8125 C 356.414062 121.234375 337.304688 102.121094 313.726562 102.121094 Z M 313.726562 102.121094 "/></clipPath></defs><g id="2b1df717d2"><rect x="0" width="375" y="0" height="374.999991" style="fill:#ffffff;fill-opacity:1;stroke:none;"/><rect x="0" width="375" y="0" height="374.999991" style="fill:#ffffff;fill-opacity:1;stroke:none;"/><g clip-rule="nonzero" clip-path="url(#01267141a6)"><g clip-rule="nonzero" clip-path="url(#62b0426bfb)"><g clip-rule="nonzero" clip-path="url(#a9704c2583)"><path style=" stroke:none;fill-rule:nonzero;fill:#303031;fill-opacity:1;" d="M 130.101562 291.851562 L 60.847656 238.105469 L 179.679688 84.988281 L 248.933594 138.734375 Z M 130.101562 291.851562 "/></g></g></g><g clip-rule="nonzero" clip-path="url(#a9d46fc836)"><g clip-rule="nonzero" clip-path="url(#7eed6489f0)"><g clip-rule="nonzero" clip-path="url(#bbaab48bd4)"><path style=" stroke:none;fill-rule:nonzero;fill:#303031;fill-opacity:1;" d="M 257.414062 290.121094 L 188.15625 236.375 L 305.730469 84.878906 L 374.984375 138.628906 Z M 257.414062 290.121094 "/></g></g></g><g clip-rule="nonzero" clip-path="url(#23cb63f80c)"><g clip-rule="nonzero" clip-path="url(#6974be3320)"><g clip-rule="nonzero" clip-path="url(#56626cd946)"><path style=" stroke:none;fill-rule:nonzero;fill:#4f5da3;fill-opacity:1;" d="M 0 133.75 L 71.578125 83.140625 L 183.277344 241.117188 L 111.699219 291.730469 Z M 0 133.75 "/></g></g></g><g clip-rule="nonzero" clip-path="url(#7683cf23f6)"><g clip-rule="nonzero" clip-path="url(#acfb1b011e)"><g clip-rule="nonzero" clip-path="url(#bce4cc679f)"><path style=" stroke:none;fill-rule:nonzero;fill:#4f5da3;fill-opacity:1;" d="M 130.359375 133.75 L 201.9375 83.140625 L 313.636719 241.117188 L 242.058594 291.730469 Z M 130.359375 133.75 "/></g></g></g><g clip-rule="nonzero" clip-path="url(#2d637bba50)"><g clip-rule="nonzero" clip-path="url(#d070d0d7e5)"><path style=" stroke:none;fill-rule:nonzero;fill:#4f5da3;fill-opacity:1;" d="M 271.039062 102.121094 L 356.414062 102.121094 L 356.414062 187.5 L 271.039062 187.5 Z M 271.039062 102.121094 "/></g></g></g></svg>