<svg xmlns="http://www.w3.org/2000/svg" xmlns:xlink="http://www.w3.org/1999/xlink" width="700" zoomAndPan="magnify" viewBox="0 0 525 525.000007" height="700" preserveAspectRatio="xMidYMid meet" version="1.2"><defs><clipPath id="79fc16fb5c"><path d="M 13.242188 26.199219 L 499 26.199219 L 499 497.761719 L 13.242188 497.761719 Z M 13.242188 26.199219 "/></clipPath><clipPath id="855eb94767"><path d="M 0.671875 36 L 524.359375 36 L 524.359375 497.761719 L 0.671875 497.761719 Z M 0.671875 36 "/></clipPath></defs><g id="3e7888afe0"><g clip-rule="nonzero" clip-path="url(#79fc16fb5c)"><path style=" stroke:none;fill-rule:nonzero;fill:#6366f1;fill-opacity:1;" d="M 89.558594 257.800781 L 40.882812 257.800781 C 38.941406 257.800781 37.371094 256.230469 37.371094 254.292969 L 37.371094 248.207031 C 37.371094 246.269531 38.941406 244.699219 40.882812 244.699219 L 89.558594 244.699219 C 91.5 244.699219 93.070312 246.269531 93.070312 248.207031 L 93.070312 254.292969 C 93.070312 256.230469 91.5 257.800781 89.558594 257.800781 Z M 13.582031 216.347656 L 13.582031 196.667969 L 24.25 196.667969 L 24.25 216.347656 C 24.25 217.046875 23.679688 217.617188 22.980469 217.617188 L 14.847656 217.617188 C 14.148438 217.617188 13.582031 217.046875 13.582031 216.347656 Z M 101.933594 80.8125 L 101.867188 80.796875 L 101.867188 70.359375 C 101.867188 45.972656 82.09375 26.199219 57.707031 26.199219 C 33.316406 26.199219 13.546875 45.972656 13.546875 70.359375 L 13.546875 90.773438 L 15.996094 90.773438 L 26.066406 126.546875 C 26.464844 127.949219 27.917969 128.761719 29.320312 128.371094 L 35.539062 126.617188 C 36.941406 126.222656 37.753906 124.765625 37.363281 123.367188 L 25.070312 79.722656 C 24.671875 78.324219 23.21875 77.511719 21.816406 77.902344 L 18.011719 78.972656 L 18.011719 72.273438 C 18.011719 50.164062 35.785156 36.035156 57.707031 36.035156 C 79.628906 36.035156 97.398438 50.164062 97.398438 72.273438 L 97.398438 79.535156 L 95.714844 79.058594 C 94.3125 78.667969 92.859375 79.480469 92.46875 80.886719 L 80.171875 124.523438 C 79.777344 125.925781 80.59375 127.378906 81.996094 127.777344 L 88.214844 129.527344 C 89.613281 129.921875 91.070312 129.105469 91.464844 127.707031 L 103.753906 84.0625 C 104.152344 82.664062 103.335938 81.207031 101.933594 80.8125 Z M 219.308594 94.910156 L 220.882812 96.484375 L 233.050781 84.3125 L 231.476562 82.738281 Z M 232.929688 78.699219 L 231.355469 77.125 L 219.183594 89.296875 L 220.757812 90.871094 Z M 484.308594 497.761719 L 36.171875 497.761719 C 36.171875 497.761719 68.675781 425.253906 106.078125 385.152344 C 143.484375 345.054688 118.96875 319.613281 145.085938 259.515625 C 215.121094 98.359375 324.839844 77.816406 413.8125 100.875 C 564.644531 139.957031 378.785156 245.871094 454.988281 266.019531 C 531.191406 286.167969 484.308594 497.761719 484.308594 497.761719 "/></g><path style=" stroke:none;fill-rule:nonzero;fill:#ffffff;fill-opacity:1;" d="M 83.753906 397.019531 L 31.277344 397.019531 C 30.308594 397.019531 29.523438 397.804688 29.523438 398.769531 L 29.523438 402.738281 L 33.410156 402.738281 L 36.933594 441.4375 L 78.101562 441.4375 L 81.621094 402.738281 L 85.507812 402.738281 L 85.507812 398.769531 C 85.507812 397.804688 84.722656 397.019531 83.753906 397.019531 Z M 266.820312 384.046875 C 266.820312 377.367188 260.425781 371.945312 252.539062 371.945312 C 244.652344 371.945312 238.257812 377.367188 238.257812 384.046875 C 238.257812 390.730469 244.652344 396.148438 252.539062 396.148438 C 260.425781 396.148438 266.820312 390.730469 266.820312 384.046875 Z M 352.277344 330.921875 L 358.648438 344.132812 L 358.648438 330.921875 Z M 379.867188 379.867188 L 379.511719 385.996094 L 328.933594 402.695312 L 327.351562 397.539062 L 324.457031 437.484375 L 316.136719 437.746094 L 316.773438 431.863281 C 316.988281 430.886719 316.351562 429.933594 315.472656 429.933594 L 194.480469 429.933594 L 187.554688 375.613281 L 159.980469 406.058594 L 118.230469 381.910156 L 117.738281 373.777344 C 117.59375 371.367188 119.363281 369.269531 121.761719 369.003906 L 124.734375 368.675781 L 177.777344 298.878906 L 257.113281 268.660156 L 334.789062 294.664062 L 351.023438 328.320312 L 358.738281 328.320312 C 359.398438 328.320312 359.972656 328.566406 360.460938 329.054688 C 360.941406 329.542969 361.1875 330.125 361.1875 330.796875 L 361.1875 346.171875 C 361.1875 346.847656 360.945312 347.429688 360.472656 347.910156 L 373.113281 374.128906 L 376.691406 375.257812 C 378.675781 375.886719 379.988281 377.785156 379.867188 379.867188 Z M 420.882812 130.273438 L 430.21875 130.273438 C 430.960938 130.273438 431.5625 129.675781 431.5625 128.933594 L 431.5625 127.296875 L 419.546875 127.296875 L 419.546875 128.933594 C 419.546875 129.675781 420.144531 130.273438 420.882812 130.273438 Z M 282.515625 97.261719 C 284.863281 97.261719 286.769531 95.355469 286.769531 93.011719 C 286.769531 90.667969 284.863281 88.761719 282.515625 88.761719 C 280.175781 88.761719 278.265625 90.667969 278.265625 93.011719 C 278.265625 95.355469 280.175781 97.261719 282.515625 97.261719 Z M 277.855469 62.019531 L 174.445312 62.019531 L 174.445312 124 L 277.855469 124 Z M 397.710938 339.441406 C 397.351562 339.441406 397.050781 339.570312 396.800781 339.824219 C 396.550781 340.078125 396.429688 340.375 396.429688 340.722656 L 396.429688 346.078125 L 393.859375 346.078125 L 393.859375 328.351562 L 387.402344 328.351562 C 387.046875 328.351562 386.742188 328.472656 386.492188 328.722656 C 386.242188 328.976562 386.117188 329.28125 386.117188 329.636719 C 386.117188 329.992188 386.242188 330.296875 386.492188 330.542969 C 386.742188 330.792969 387.046875 330.921875 387.402344 330.921875 L 391.285156 330.921875 L 391.285156 346.078125 L 387.34375 346.078125 C 386.984375 346.078125 386.679688 346.199219 386.429688 346.445312 C 386.179688 346.691406 386.058594 346.988281 386.058594 347.335938 C 386.058594 347.691406 386.179688 347.996094 386.429688 348.257812 C 386.679688 348.515625 386.984375 348.648438 387.34375 348.648438 L 397.710938 348.648438 C 398.070312 348.648438 398.371094 348.523438 398.621094 348.269531 C 398.871094 348.023438 398.996094 347.71875 398.996094 347.363281 L 398.996094 340.722656 C 398.996094 340.367188 398.871094 340.066406 398.621094 339.816406 C 398.371094 339.566406 398.070312 339.441406 397.710938 339.441406 Z M 377.570312 330.921875 L 369.738281 330.921875 L 369.738281 346.078125 L 377.570312 346.078125 Z M 379.382812 329.054688 C 379.863281 329.542969 380.109375 330.125 380.109375 330.796875 L 380.109375 346.171875 C 380.109375 346.855469 379.863281 347.4375 379.382812 347.917969 C 378.894531 348.40625 378.3125 348.648438 377.628906 348.648438 L 369.644531 348.648438 C 368.953125 348.648438 368.367188 348.40625 367.886719 347.917969 C 367.40625 347.4375 367.164062 346.855469 367.164062 346.171875 L 367.164062 330.796875 C 367.164062 330.125 367.410156 329.542969 367.902344 329.054688 C 368.386719 328.566406 368.96875 328.320312 369.644531 328.320312 L 377.660156 328.320312 C 378.320312 328.320312 378.894531 328.566406 379.382812 329.054688 Z M 475.65625 278.820312 L 475.65625 283.5 L 473.085938 283.5 L 473.085938 276.191406 C 472.253906 275.402344 471.402344 274.648438 470.515625 273.929688 L 470.515625 283.5 L 466.570312 283.5 C 466.214844 283.5 465.910156 283.625 465.660156 283.871094 C 465.410156 284.117188 465.289062 284.410156 465.289062 284.757812 C 465.289062 285.113281 465.410156 285.421875 465.660156 285.683594 C 465.910156 285.941406 466.214844 286.070312 466.570312 286.070312 L 476.941406 286.070312 C 477.296875 286.070312 477.601562 285.949219 477.851562 285.695312 C 478.101562 285.445312 478.222656 285.140625 478.222656 284.785156 L 478.222656 281.894531 C 477.398438 280.832031 476.542969 279.804688 475.65625 278.820312 Z M 456.796875 268.34375 L 448.964844 268.34375 L 448.964844 283.5 L 456.796875 283.5 Z M 459.183594 267.375 C 459.277344 267.640625 459.335938 267.917969 459.335938 268.222656 L 459.335938 283.597656 C 459.335938 284.277344 459.09375 284.859375 458.613281 285.34375 C 458.125 285.828125 457.539062 286.070312 456.855469 286.070312 L 448.871094 286.070312 C 448.179688 286.070312 447.59375 285.828125 447.117188 285.34375 C 446.632812 284.859375 446.394531 284.277344 446.394531 283.597656 L 446.394531 268.222656 C 446.394531 267.546875 446.640625 266.964844 447.128906 266.480469 C 447.621094 265.988281 448.199219 265.742188 448.871094 265.742188 L 454.003906 265.742188 C 454.328125 265.835938 454.652344 265.929688 454.988281 266.019531 C 456.429688 266.402344 457.828125 266.859375 459.183594 267.375 Z M 437.875 268.34375 L 430.042969 268.34375 L 430.042969 283.5 L 437.875 283.5 Z M 439.6875 266.480469 C 440.171875 266.964844 440.414062 267.546875 440.414062 268.222656 L 440.414062 283.597656 C 440.414062 284.277344 440.171875 284.859375 439.6875 285.34375 C 439.203125 285.828125 438.617188 286.070312 437.9375 286.070312 L 429.953125 286.070312 C 429.257812 286.070312 428.671875 285.828125 428.195312 285.34375 C 427.714844 284.859375 427.476562 284.277344 427.476562 283.597656 L 427.476562 268.222656 C 427.476562 267.546875 427.71875 266.964844 428.210938 266.480469 C 428.699219 265.988281 429.277344 265.742188 429.953125 265.742188 L 437.96875 265.742188 C 438.632812 265.742188 439.203125 265.988281 439.6875 266.480469 Z M 420.179688 276.867188 C 419.824219 276.867188 419.519531 276.992188 419.269531 277.246094 C 419.019531 277.5 418.894531 277.804688 418.894531 278.148438 L 418.894531 283.5 L 416.328125 283.5 L 416.328125 265.773438 L 409.871094 265.773438 C 409.511719 265.773438 409.210938 265.898438 408.960938 266.148438 C 408.710938 266.402344 408.585938 266.703125 408.585938 267.058594 C 408.585938 267.414062 408.710938 267.71875 408.960938 267.96875 C 409.210938 268.21875 409.511719 268.34375 409.871094 268.34375 L 413.757812 268.34375 L 413.757812 283.5 L 409.808594 283.5 C 409.453125 283.5 409.148438 283.625 408.898438 283.871094 C 408.652344 284.117188 408.527344 284.410156 408.527344 284.757812 C 408.527344 285.113281 408.652344 285.421875 408.898438 285.683594 C 409.148438 285.941406 409.453125 286.070312 409.808594 286.070312 L 420.179688 286.070312 C 420.535156 286.070312 420.839844 285.949219 421.089844 285.695312 C 421.339844 285.445312 421.464844 285.140625 421.464844 284.785156 L 421.464844 278.148438 C 421.464844 277.789062 421.339844 277.488281 421.089844 277.238281 C 420.839844 276.988281 420.535156 276.867188 420.179688 276.867188 Z M 400.035156 268.34375 L 392.207031 268.34375 L 392.207031 283.5 L 400.035156 283.5 Z M 401.847656 266.480469 C 402.332031 266.964844 402.574219 267.546875 402.574219 268.222656 L 402.574219 283.597656 C 402.574219 284.277344 402.332031 284.859375 401.847656 285.34375 C 401.363281 285.828125 400.78125 286.070312 400.097656 286.070312 L 392.113281 286.070312 C 391.421875 286.070312 390.832031 285.828125 390.351562 285.34375 C 389.875 284.859375 389.632812 284.277344 389.632812 283.597656 L 389.632812 268.222656 C 389.632812 267.546875 389.878906 266.964844 390.371094 266.480469 C 390.855469 265.988281 391.4375 265.742188 392.113281 265.742188 L 400.125 265.742188 C 400.789062 265.742188 401.363281 265.988281 401.847656 266.480469 Z M 369.554688 209.683594 L 377.378906 209.683594 L 377.378906 194.527344 L 369.554688 194.527344 Z M 369.460938 191.925781 L 377.472656 191.925781 C 378.136719 191.925781 378.710938 192.167969 379.195312 192.660156 C 379.679688 193.148438 379.921875 193.730469 379.921875 194.402344 L 379.921875 209.777344 C 379.921875 210.460938 379.679688 211.042969 379.195312 211.527344 C 378.710938 212.011719 378.128906 212.253906 377.445312 212.253906 L 369.460938 212.253906 C 368.769531 212.253906 368.179688 212.011719 367.699219 211.527344 C 367.222656 211.042969 366.980469 210.460938 366.980469 209.777344 L 366.980469 194.402344 C 366.980469 193.730469 367.226562 193.148438 367.71875 192.660156 C 368.203125 192.167969 368.785156 191.925781 369.460938 191.925781 Z M 349.316406 209.683594 C 348.960938 209.683594 348.652344 209.804688 348.402344 210.050781 C 348.152344 210.296875 348.03125 210.589844 348.03125 210.9375 C 348.03125 211.296875 348.152344 211.601562 348.402344 211.863281 C 348.652344 212.121094 348.960938 212.253906 349.316406 212.253906 L 359.6875 212.253906 C 360.042969 212.253906 360.34375 212.128906 360.59375 211.878906 C 360.84375 211.628906 360.972656 211.328125 360.972656 210.972656 L 360.972656 204.332031 C 360.972656 203.972656 360.84375 203.667969 360.59375 203.417969 C 360.34375 203.171875 360.042969 203.046875 359.6875 203.046875 C 359.328125 203.046875 359.023438 203.175781 358.773438 203.429688 C 358.523438 203.6875 358.402344 203.984375 358.402344 204.332031 L 358.402344 209.683594 L 355.832031 209.683594 L 355.832031 191.957031 L 349.378906 191.957031 C 349.019531 191.957031 348.714844 192.082031 348.46875 192.332031 C 348.214844 192.582031 348.09375 192.886719 348.09375 193.242188 C 348.09375 193.601562 348.214844 193.902344 348.46875 194.148438 C 348.714844 194.402344 349.019531 194.527344 349.378906 194.527344 L 353.265625 194.527344 L 353.265625 209.683594 Z M 331.710938 209.683594 L 339.542969 209.683594 L 339.542969 194.527344 L 331.710938 194.527344 Z M 331.617188 191.925781 L 339.632812 191.925781 C 340.296875 191.925781 340.867188 192.167969 341.355469 192.660156 C 341.835938 193.148438 342.078125 193.730469 342.078125 194.402344 L 342.078125 209.777344 C 342.078125 210.460938 341.835938 211.042969 341.355469 211.527344 C 340.867188 212.011719 340.285156 212.253906 339.605469 212.253906 L 331.617188 212.253906 C 330.925781 212.253906 330.335938 212.011719 329.859375 211.527344 C 329.378906 211.042969 329.144531 210.460938 329.144531 209.777344 L 329.144531 194.402344 C 329.144531 193.730469 329.382812 193.148438 329.875 192.660156 C 330.367188 192.167969 330.945312 191.925781 331.617188 191.925781 Z M 317.992188 191.957031 L 311.535156 191.957031 C 311.179688 191.957031 310.875 192.082031 310.625 192.332031 C 310.378906 192.582031 310.25 192.886719 310.25 193.242188 C 310.25 193.601562 310.378906 193.902344 310.625 194.148438 C 310.875 194.402344 311.179688 194.527344 311.535156 194.527344 L 315.421875 194.527344 L 315.421875 209.683594 L 311.472656 209.683594 C 311.117188 209.683594 310.816406 209.804688 310.566406 210.050781 C 310.316406 210.296875 310.1875 210.589844 310.1875 210.9375 C 310.1875 211.296875 310.316406 211.601562 310.566406 211.863281 C 310.816406 212.121094 311.117188 212.253906 311.472656 212.253906 L 321.84375 212.253906 C 322.199219 212.253906 322.507812 212.128906 322.753906 211.878906 C 323.007812 211.628906 323.128906 211.328125 323.128906 210.972656 L 323.128906 204.332031 C 323.128906 203.972656 323.007812 203.667969 322.753906 203.417969 C 322.507812 203.171875 322.199219 203.046875 321.84375 203.046875 C 321.488281 203.046875 321.1875 203.175781 320.9375 203.429688 C 320.6875 203.6875 320.558594 203.984375 320.558594 204.332031 L 320.558594 209.683594 L 317.992188 209.683594 Z M 293.871094 209.683594 L 301.699219 209.683594 L 301.699219 194.527344 L 293.871094 194.527344 Z M 293.777344 191.925781 L 301.792969 191.925781 C 302.457031 191.925781 303.03125 192.167969 303.511719 192.660156 C 304 193.148438 304.242188 193.730469 304.242188 194.402344 L 304.242188 209.777344 C 304.242188 210.460938 304 211.042969 303.511719 211.527344 C 303.03125 212.011719 302.445312 212.253906 301.761719 212.253906 L 293.777344 212.253906 C 293.085938 212.253906 292.5 212.011719 292.019531 211.527344 C 291.539062 211.042969 291.300781 210.460938 291.300781 209.777344 L 291.300781 194.402344 C 291.300781 193.730469 291.546875 193.148438 292.03125 192.660156 C 292.523438 192.167969 293.105469 191.925781 293.777344 191.925781 Z M 273.636719 209.683594 C 273.277344 209.683594 272.972656 209.804688 272.722656 210.050781 C 272.472656 210.296875 272.351562 210.589844 272.351562 210.9375 C 272.351562 211.296875 272.472656 211.601562 272.722656 211.863281 C 272.972656 212.121094 273.277344 212.253906 273.636719 212.253906 L 284.003906 212.253906 C 284.359375 212.253906 284.664062 212.128906 284.914062 211.878906 C 285.164062 211.628906 285.292969 211.328125 285.292969 210.972656 L 285.292969 204.332031 C 285.292969 203.972656 285.164062 203.667969 284.914062 203.417969 C 284.664062 203.171875 284.359375 203.046875 284.003906 203.046875 C 283.648438 203.046875 283.34375 203.175781 283.09375 203.429688 C 282.84375 203.6875 282.71875 203.984375 282.71875 204.332031 L 282.71875 209.683594 L 280.148438 209.683594 L 280.148438 191.957031 L 273.691406 191.957031 C 273.335938 191.957031 273.035156 192.082031 272.785156 192.332031 C 272.535156 192.582031 272.414062 192.886719 272.414062 193.242188 C 272.414062 193.601562 272.535156 193.902344 272.785156 194.148438 C 273.035156 194.402344 273.335938 194.527344 273.691406 194.527344 L 277.578125 194.527344 L 277.578125 209.683594 Z M 254.714844 209.683594 C 254.355469 209.683594 254.050781 209.804688 253.800781 210.050781 C 253.558594 210.296875 253.429688 210.589844 253.429688 210.9375 C 253.429688 211.296875 253.558594 211.601562 253.800781 211.863281 C 254.050781 212.121094 254.355469 212.253906 254.714844 212.253906 L 265.085938 212.253906 C 265.441406 212.253906 265.746094 212.128906 265.992188 211.878906 C 266.242188 211.628906 266.371094 211.328125 266.371094 210.972656 L 266.371094 204.332031 C 266.371094 203.972656 266.242188 203.667969 265.992188 203.417969 C 265.746094 203.171875 265.441406 203.046875 265.085938 203.046875 C 264.726562 203.046875 264.421875 203.175781 264.171875 203.429688 C 263.921875 203.6875 263.796875 203.984375 263.796875 204.332031 L 263.796875 209.683594 L 261.226562 209.683594 L 261.226562 191.957031 L 254.777344 191.957031 C 254.417969 191.957031 254.113281 192.082031 253.867188 192.332031 C 253.613281 192.582031 253.492188 192.886719 253.492188 193.242188 C 253.492188 193.601562 253.613281 193.902344 253.867188 194.148438 C 254.113281 194.402344 254.417969 194.527344 254.777344 194.527344 L 258.664062 194.527344 L 258.664062 209.683594 Z M 237.109375 209.683594 L 244.941406 209.683594 L 244.941406 194.527344 L 237.109375 194.527344 Z M 235.257812 211.527344 C 234.777344 211.042969 234.542969 210.460938 234.542969 209.777344 L 234.542969 194.402344 C 234.542969 193.730469 234.78125 193.148438 235.273438 192.660156 C 235.765625 192.167969 236.34375 191.925781 237.015625 191.925781 L 245.03125 191.925781 C 245.695312 191.925781 246.265625 192.167969 246.753906 192.660156 C 247.234375 193.148438 247.476562 193.730469 247.476562 194.402344 L 247.476562 209.777344 C 247.476562 210.460938 247.234375 211.042969 246.753906 211.527344 C 246.265625 212.011719 245.6875 212.253906 245.003906 212.253906 L 237.015625 212.253906 C 236.324219 212.253906 235.738281 212.011719 235.257812 211.527344 Z M 449 158.445312 L 441.164062 158.445312 L 441.164062 173.605469 L 449 173.605469 Z M 449.058594 176.171875 L 441.074219 176.171875 C 440.382812 176.171875 439.792969 175.933594 439.316406 175.445312 C 438.835938 174.960938 438.59375 174.378906 438.59375 173.695312 L 438.59375 158.320312 C 438.59375 157.648438 438.839844 157.066406 439.332031 156.578125 C 439.816406 156.089844 440.398438 155.84375 441.074219 155.84375 L 449.089844 155.84375 C 449.75 155.84375 450.324219 156.089844 450.808594 156.578125 C 451.292969 157.066406 451.535156 157.648438 451.535156 158.320312 L 451.535156 173.695312 C 451.535156 174.378906 451.292969 174.960938 450.808594 175.445312 C 450.324219 175.933594 449.742188 176.171875 449.058594 176.171875 Z M 430.390625 167.34375 C 430.136719 167.601562 430.015625 167.90625 430.015625 168.25 L 430.015625 173.605469 L 427.445312 173.605469 L 427.445312 155.875 L 420.992188 155.875 C 420.636719 155.875 420.328125 156 420.082031 156.25 C 419.828125 156.5 419.707031 156.800781 419.707031 157.164062 C 419.707031 157.519531 419.828125 157.820312 420.082031 158.070312 C 420.328125 158.320312 420.636719 158.445312 420.992188 158.445312 L 424.878906 158.445312 L 424.878906 173.605469 L 420.929688 173.605469 C 420.574219 173.605469 420.269531 173.726562 420.015625 173.972656 C 419.773438 174.214844 419.644531 174.511719 419.644531 174.855469 C 419.644531 175.214844 419.773438 175.523438 420.015625 175.78125 C 420.269531 176.042969 420.574219 176.171875 420.929688 176.171875 L 431.300781 176.171875 C 431.65625 176.171875 431.957031 176.046875 432.210938 175.796875 C 432.457031 175.546875 432.585938 175.246094 432.585938 174.890625 L 432.585938 168.25 C 432.585938 167.894531 432.457031 167.589844 432.210938 167.339844 C 431.957031 167.085938 431.65625 166.964844 431.300781 166.964844 C 430.945312 166.964844 430.640625 167.089844 430.390625 167.34375 Z M 411.15625 158.445312 L 403.324219 158.445312 L 403.324219 173.605469 L 411.15625 173.605469 Z M 411.21875 176.171875 L 403.230469 176.171875 C 402.539062 176.171875 401.957031 175.933594 401.472656 175.445312 C 400.992188 174.960938 400.757812 174.378906 400.757812 173.695312 L 400.757812 158.320312 C 400.757812 157.648438 400.996094 157.066406 401.488281 156.578125 C 401.980469 156.089844 402.5625 155.84375 403.230469 155.84375 L 411.246094 155.84375 C 411.910156 155.84375 412.484375 156.089844 412.96875 156.578125 C 413.457031 157.066406 413.695312 157.648438 413.695312 158.320312 L 413.695312 173.695312 C 413.695312 174.378906 413.457031 174.960938 412.96875 175.445312 C 412.484375 175.933594 411.902344 176.171875 411.21875 176.171875 Z M 394.371094 175.796875 C 394.621094 175.546875 394.742188 175.246094 394.742188 174.890625 L 394.742188 168.25 C 394.742188 167.894531 394.621094 167.589844 394.371094 167.339844 C 394.121094 167.085938 393.816406 166.964844 393.457031 166.964844 C 393.101562 166.964844 392.800781 167.089844 392.550781 167.34375 C 392.300781 167.601562 392.171875 167.90625 392.171875 168.25 L 392.171875 173.605469 L 389.605469 173.605469 L 389.605469 155.875 L 383.148438 155.875 C 382.792969 155.875 382.488281 156 382.242188 156.25 C 381.992188 156.5 381.863281 156.800781 381.863281 157.164062 C 381.863281 157.519531 381.992188 157.820312 382.242188 158.070312 C 382.488281 158.320312 382.792969 158.445312 383.148438 158.445312 L 387.035156 158.445312 L 387.035156 173.605469 L 383.085938 173.605469 C 382.730469 173.605469 382.429688 173.726562 382.179688 173.972656 C 381.929688 174.214844 381.804688 174.511719 381.804688 174.855469 C 381.804688 175.214844 381.929688 175.523438 382.179688 175.78125 C 382.429688 176.042969 382.730469 176.171875 383.085938 176.171875 L 393.457031 176.171875 C 393.816406 176.171875 394.121094 176.046875 394.371094 175.796875 Z M 373.3125 158.445312 L 365.484375 158.445312 L 365.484375 173.605469 L 373.3125 173.605469 Z M 373.40625 155.84375 C 374.070312 155.84375 374.644531 156.089844 375.125 156.578125 C 375.613281 157.066406 375.855469 157.648438 375.855469 158.320312 L 375.855469 173.695312 C 375.855469 174.378906 375.613281 174.960938 375.125 175.445312 C 374.644531 175.933594 374.058594 176.171875 373.375 176.171875 L 365.394531 176.171875 C 364.699219 176.171875 364.113281 175.933594 363.632812 175.445312 C 363.152344 174.960938 362.914062 174.378906 362.914062 173.695312 L 362.914062 158.320312 C 362.914062 157.648438 363.160156 157.066406 363.648438 156.578125 C 364.136719 156.089844 364.71875 155.84375 365.394531 155.84375 Z M 345.25 173.605469 C 344.894531 173.605469 344.585938 173.726562 344.335938 173.972656 C 344.085938 174.214844 343.964844 174.511719 343.964844 174.855469 C 343.964844 175.214844 344.085938 175.523438 344.335938 175.78125 C 344.585938 176.042969 344.894531 176.171875 345.25 176.171875 L 355.617188 176.171875 C 355.976562 176.171875 356.277344 176.046875 356.527344 175.796875 C 356.777344 175.546875 356.90625 175.246094 356.90625 174.890625 L 356.90625 168.25 C 356.90625 167.894531 356.777344 167.589844 356.527344 167.339844 C 356.277344 167.085938 355.976562 166.964844 355.617188 166.964844 C 355.261719 166.964844 354.957031 167.089844 354.707031 167.34375 C 354.457031 167.601562 354.332031 167.90625 354.332031 168.25 L 354.332031 173.605469 L 351.761719 173.605469 L 351.761719 155.875 L 345.308594 155.875 C 344.949219 155.875 344.648438 156 344.398438 156.25 C 344.148438 156.5 344.027344 156.800781 344.027344 157.164062 C 344.027344 157.519531 344.148438 157.820312 344.398438 158.070312 C 344.648438 158.320312 344.949219 158.445312 345.308594 158.445312 L 349.191406 158.445312 L 349.191406 173.605469 Z M 335.785156 167.34375 C 335.539062 167.601562 335.414062 167.90625 335.414062 168.25 L 335.414062 173.605469 L 332.839844 173.605469 L 332.839844 155.875 L 326.390625 155.875 C 326.03125 155.875 325.726562 156 325.480469 156.25 C 325.226562 156.5 325.105469 156.800781 325.105469 157.164062 C 325.105469 157.519531 325.226562 157.820312 325.480469 158.070312 C 325.726562 158.320312 326.03125 158.445312 326.390625 158.445312 L 330.277344 158.445312 L 330.277344 173.605469 L 326.328125 173.605469 C 325.972656 173.605469 325.664062 173.726562 325.417969 173.972656 C 325.171875 174.214844 325.042969 174.511719 325.042969 174.855469 C 325.042969 175.214844 325.171875 175.523438 325.417969 175.78125 C 325.664062 176.042969 325.972656 176.171875 326.328125 176.171875 L 336.699219 176.171875 C 337.054688 176.171875 337.359375 176.046875 337.605469 175.796875 C 337.855469 175.546875 337.984375 175.246094 337.984375 174.890625 L 337.984375 168.25 C 337.984375 167.894531 337.855469 167.589844 337.605469 167.339844 C 337.359375 167.085938 337.054688 166.964844 336.699219 166.964844 C 336.34375 166.964844 336.035156 167.089844 335.785156 167.34375 Z M 316.554688 158.445312 L 308.722656 158.445312 L 308.722656 173.605469 L 316.554688 173.605469 Z M 316.644531 155.84375 C 317.308594 155.84375 317.878906 156.089844 318.367188 156.578125 C 318.851562 157.066406 319.089844 157.648438 319.089844 158.320312 L 319.089844 173.695312 C 319.089844 174.378906 318.851562 174.960938 318.367188 175.445312 C 317.878906 175.933594 317.300781 176.171875 316.617188 176.171875 L 308.628906 176.171875 C 307.9375 176.171875 307.351562 175.933594 306.871094 175.445312 C 306.394531 174.960938 306.152344 174.378906 306.152344 173.695312 L 306.152344 158.320312 C 306.152344 157.648438 306.398438 157.066406 306.886719 156.578125 C 307.375 156.089844 307.957031 155.84375 308.628906 155.84375 Z M 364.648438 146.941406 L 372.480469 146.941406 L 372.480469 131.785156 L 364.648438 131.785156 Z M 362.796875 148.789062 C 362.316406 148.304688 362.078125 147.71875 362.078125 147.035156 L 362.078125 131.664062 C 362.078125 130.992188 362.324219 130.410156 362.8125 129.921875 C 363.304688 129.433594 363.882812 129.1875 364.554688 129.1875 L 372.574219 129.1875 C 373.230469 129.1875 373.808594 129.433594 374.292969 129.921875 C 374.773438 130.410156 375.019531 130.992188 375.019531 131.664062 L 375.019531 147.035156 C 375.019531 147.71875 374.773438 148.304688 374.292969 148.789062 C 373.808594 149.273438 373.222656 149.515625 372.539062 149.515625 L 364.554688 149.515625 C 363.863281 149.515625 363.277344 149.273438 362.796875 148.789062 Z M 344.414062 146.941406 C 344.054688 146.941406 343.753906 147.070312 343.503906 147.316406 C 343.253906 147.558594 343.125 147.851562 343.125 148.199219 C 343.125 148.554688 343.253906 148.867188 343.503906 149.125 C 343.753906 149.386719 344.054688 149.515625 344.414062 149.515625 L 354.78125 149.515625 C 355.136719 149.515625 355.445312 149.390625 355.695312 149.140625 C 355.941406 148.890625 356.070312 148.585938 356.070312 148.230469 L 356.070312 141.59375 C 356.070312 141.234375 355.941406 140.933594 355.695312 140.683594 C 355.445312 140.429688 355.136719 140.308594 354.78125 140.308594 C 354.425781 140.308594 354.121094 140.433594 353.875 140.6875 C 353.625 140.945312 353.496094 141.246094 353.496094 141.59375 L 353.496094 146.941406 L 350.929688 146.941406 L 350.929688 130.273438 L 359.417969 130.273438 C 360.152344 130.273438 360.753906 129.675781 360.753906 128.933594 L 360.753906 127.296875 L 348.738281 127.296875 L 348.738281 128.933594 C 348.738281 129.03125 348.78125 129.121094 348.800781 129.214844 L 344.472656 129.214844 C 344.117188 129.214844 343.8125 129.34375 343.5625 129.59375 C 343.3125 129.84375 343.191406 130.148438 343.191406 130.503906 C 343.191406 130.859375 343.3125 131.164062 343.5625 131.414062 C 343.8125 131.664062 344.117188 131.785156 344.472656 131.785156 L 348.359375 131.785156 L 348.359375 146.941406 Z M 326.808594 146.941406 L 334.640625 146.941406 L 334.640625 131.785156 L 326.808594 131.785156 Z M 324.957031 148.789062 C 324.480469 148.304688 324.238281 147.71875 324.238281 147.035156 L 324.238281 131.664062 C 324.238281 130.992188 324.484375 130.410156 324.972656 129.921875 C 325.460938 129.433594 326.042969 129.1875 326.71875 129.1875 L 334.730469 129.1875 C 335.394531 129.1875 335.96875 129.433594 336.449219 129.921875 C 336.9375 130.410156 337.179688 130.992188 337.179688 131.664062 L 337.179688 147.035156 C 337.179688 147.71875 336.9375 148.304688 336.449219 148.789062 C 335.96875 149.273438 335.386719 149.515625 334.699219 149.515625 L 326.71875 149.515625 C 326.023438 149.515625 325.4375 149.273438 324.957031 148.789062 Z M 307.890625 146.941406 L 315.714844 146.941406 L 315.714844 131.785156 L 307.890625 131.785156 Z M 306.035156 148.789062 C 305.558594 148.304688 305.316406 147.71875 305.316406 147.035156 L 305.316406 131.664062 C 305.316406 130.992188 305.5625 130.410156 306.054688 129.921875 C 306.539062 129.433594 307.121094 129.1875 307.796875 129.1875 L 315.808594 129.1875 C 316.472656 129.1875 317.046875 129.433594 317.53125 129.921875 C 318.015625 130.410156 318.257812 130.992188 318.257812 131.664062 L 318.257812 147.035156 C 318.257812 147.71875 318.015625 148.304688 317.53125 148.789062 C 317.046875 149.273438 316.464844 149.515625 315.78125 149.515625 L 307.796875 149.515625 C 307.105469 149.515625 306.515625 149.273438 306.035156 148.789062 Z M 288.96875 146.941406 L 296.800781 146.941406 L 296.800781 131.785156 L 288.96875 131.785156 Z M 286.394531 131.664062 C 286.394531 130.992188 286.640625 130.410156 287.132812 129.921875 C 287.617188 129.433594 288.199219 129.1875 288.875 129.1875 L 296.890625 129.1875 C 297.550781 129.1875 298.125 129.433594 298.613281 129.921875 C 299.09375 130.410156 299.339844 130.992188 299.339844 131.664062 L 299.339844 147.035156 C 299.339844 147.71875 299.09375 148.304688 298.613281 148.789062 C 298.125 149.273438 297.542969 149.515625 296.859375 149.515625 L 288.875 149.515625 C 288.183594 149.515625 287.597656 149.273438 287.117188 148.789062 C 286.636719 148.304688 286.394531 147.71875 286.394531 147.035156 Z M 277.816406 146.941406 L 275.246094 146.941406 L 275.246094 129.214844 L 268.792969 129.214844 C 268.4375 129.214844 268.132812 129.34375 267.882812 129.59375 C 267.632812 129.84375 267.507812 130.148438 267.507812 130.503906 C 267.507812 130.859375 267.632812 131.164062 267.882812 131.414062 C 268.132812 131.664062 268.4375 131.785156 268.792969 131.785156 L 272.679688 131.785156 L 272.679688 146.941406 L 268.730469 146.941406 C 268.375 146.941406 268.070312 147.070312 267.824219 147.316406 C 267.574219 147.558594 267.445312 147.851562 267.445312 148.199219 C 267.445312 148.554688 267.574219 148.867188 267.824219 149.125 C 268.070312 149.386719 268.375 149.515625 268.730469 149.515625 L 279.101562 149.515625 C 279.457031 149.515625 279.761719 149.390625 280.007812 149.140625 C 280.261719 148.890625 280.386719 148.585938 280.386719 148.230469 L 280.386719 141.59375 C 280.386719 141.234375 280.261719 140.933594 280.007812 140.683594 C 279.761719 140.429688 279.457031 140.308594 279.101562 140.308594 C 278.746094 140.308594 278.441406 140.433594 278.191406 140.6875 C 277.941406 140.945312 277.816406 141.246094 277.816406 141.59375 Z M 249.808594 146.941406 C 249.453125 146.941406 249.152344 147.070312 248.902344 147.316406 C 248.652344 147.558594 248.523438 147.851562 248.523438 148.199219 C 248.523438 148.554688 248.652344 148.867188 248.902344 149.125 C 249.152344 149.386719 249.453125 149.515625 249.808594 149.515625 L 260.179688 149.515625 C 260.535156 149.515625 260.839844 149.390625 261.09375 149.140625 C 261.34375 148.890625 261.464844 148.585938 261.464844 148.230469 L 261.464844 141.59375 C 261.464844 141.234375 261.34375 140.933594 261.09375 140.683594 C 260.839844 140.429688 260.535156 140.308594 260.179688 140.308594 C 259.824219 140.308594 259.523438 140.433594 259.273438 140.6875 C 259.023438 140.945312 258.894531 141.246094 258.894531 141.59375 L 258.894531 146.941406 L 256.328125 146.941406 L 256.328125 129.214844 L 249.871094 129.214844 C 249.515625 129.214844 249.210938 129.34375 248.960938 129.59375 C 248.714844 129.84375 248.585938 130.148438 248.585938 130.503906 C 248.585938 130.859375 248.714844 131.164062 248.960938 131.414062 C 249.210938 131.664062 249.515625 131.785156 249.871094 131.785156 L 253.757812 131.785156 L 253.757812 146.941406 Z M 229.636719 138.640625 L 229.636719 147.035156 C 229.636719 147.71875 229.875 148.304688 230.355469 148.789062 C 230.835938 149.273438 231.421875 149.515625 232.113281 149.515625 L 240.097656 149.515625 C 240.78125 149.515625 241.367188 149.273438 241.847656 148.789062 C 242.335938 148.304688 242.578125 147.71875 242.578125 147.035156 L 242.578125 131.664062 C 242.578125 130.992188 242.335938 130.410156 241.847656 129.921875 C 241.691406 129.761719 241.519531 129.636719 241.339844 129.527344 C 240.320312 130.269531 239.304688 131.023438 238.285156 131.785156 L 240.035156 131.785156 L 240.035156 146.941406 L 232.207031 146.941406 L 232.207031 136.535156 C 231.351562 137.226562 230.492188 137.929688 229.636719 138.640625 Z M 49.570312 192.304688 L 54.066406 192.304688 L 54.066406 184.699219 L 54.769531 184.699219 L 54.769531 192.304688 L 58.808594 192.304688 C 60.054688 192.304688 61.09375 191.949219 61.898438 191.246094 C 62.730469 190.515625 63.167969 189.515625 63.167969 188.347656 C 63.167969 187.4375 62.894531 186.660156 62.375 186.070312 C 62.871094 185.382812 63 184.664062 63 184.09375 C 63 182.980469 62.570312 182.007812 61.761719 181.28125 C 60.960938 180.566406 59.78125 180.21875 58.15625 180.21875 L 48.042969 180.21875 L 48.042969 184.699219 L 49.570312 184.699219 Z M 43.15625 184.515625 L 41.898438 184.515625 L 41.898438 180.21875 L 47.515625 180.21875 L 47.515625 192.304688 L 43.15625 192.304688 L 43.15625 184.515625 "/><path style=" stroke:none;fill-rule:nonzero;fill:#bf8499;fill-opacity:1;" d="M 277.21875 263.617188 L 277.21875 276.480469 L 283.441406 281.316406 C 283.441406 281.316406 262.152344 304.746094 254.457031 304.746094 C 246.8125 304.746094 225.882812 283.171875 225.882812 283.171875 L 232.964844 278.054688 L 232.964844 265.066406 C 229.910156 261.914062 227.984375 257.714844 227.753906 252.46875 L 227.191406 238.675781 C 223.066406 239.050781 216.429688 227.199219 219.984375 221.613281 C 222 218.449219 224.566406 220.578125 226.558594 223.324219 L 225.84375 205.75 C 225.570312 199.621094 230.472656 194.5 236.609375 194.5 L 272.3125 194.5 C 278.449219 194.5 283.347656 199.621094 283.078125 205.75 L 282.167969 227.945312 C 283.523438 224.222656 286.695312 217.023438 289.617188 221.613281 C 293.371094 227.515625 285.75 240.417969 281.738281 238.492188 L 281.167969 252.46875 C 280.972656 256.945312 279.53125 260.65625 277.21875 263.617188 Z M 157.011719 404.34375 L 121.710938 383.925781 L 106.402344 406.0625 L 106.371094 406.058594 L 100.355469 414.960938 C 94.503906 423.625 103.554688 443.007812 113.957031 444.082031 L 207.128906 446.457031 L 207.621094 441.648438 L 180.59375 441.648438 L 179.730469 432.703125 C 179.414062 431.296875 180.335938 429.933594 181.589844 429.933594 L 208.832031 429.933594 L 210.191406 416.769531 L 152.25 410.792969 Z M 369.980469 444.921875 L 316.078125 438.332031 L 316.773438 431.863281 C 316.988281 430.886719 316.351562 429.933594 315.472656 429.933594 L 277.632812 429.933594 L 278.789062 403.792969 L 335.558594 406.316406 L 332.890625 401.390625 L 373.855469 387.863281 L 386.699219 416.019531 L 387.703125 418.109375 C 392.222656 427.539062 380.425781 445.382812 369.980469 444.921875 "/><g clip-rule="nonzero" clip-path="url(#855eb94767)"><path style=" stroke:none;fill-rule:nonzero;fill:#2f4269;fill-opacity:1;" d="M 74.601562 409.476562 L 74.601562 412.894531 C 74.601562 413.507812 75.101562 414.007812 75.714844 414.007812 C 76.328125 414.007812 76.828125 413.507812 76.828125 412.894531 L 76.828125 409.476562 C 76.828125 408.863281 76.328125 408.363281 75.714844 408.363281 C 75.101562 408.363281 74.601562 408.863281 74.601562 409.476562 Z M 71.480469 412.894531 L 71.480469 409.476562 C 71.480469 408.863281 70.980469 408.363281 70.363281 408.363281 C 69.75 408.363281 69.25 408.863281 69.25 409.476562 L 69.25 412.894531 C 69.25 413.507812 69.75 414.007812 70.363281 414.007812 C 70.980469 414.007812 71.480469 413.507812 71.480469 412.894531 Z M 66.132812 412.894531 L 66.132812 409.476562 C 66.132812 408.863281 65.636719 408.363281 65.023438 408.363281 C 64.402344 408.363281 63.90625 408.863281 63.90625 409.476562 L 63.90625 412.894531 C 63.90625 413.507812 64.402344 414.007812 65.023438 414.007812 C 65.636719 414.007812 66.132812 413.507812 66.132812 412.894531 Z M 60.78125 412.894531 L 60.78125 409.476562 C 60.78125 408.863281 60.285156 408.363281 59.671875 408.363281 C 59.050781 408.363281 58.558594 408.863281 58.558594 409.476562 L 58.558594 412.894531 C 58.558594 413.507812 59.050781 414.007812 59.671875 414.007812 C 60.285156 414.007812 60.78125 413.507812 60.78125 412.894531 Z M 55.4375 412.894531 L 55.4375 409.476562 C 55.4375 408.863281 54.941406 408.363281 54.324219 408.363281 C 53.710938 408.363281 53.210938 408.863281 53.210938 409.476562 L 53.210938 412.894531 C 53.210938 413.507812 53.710938 414.007812 54.324219 414.007812 C 54.941406 414.007812 55.4375 413.507812 55.4375 412.894531 Z M 50.089844 412.894531 L 50.089844 409.476562 C 50.089844 408.863281 49.589844 408.363281 48.972656 408.363281 C 48.359375 408.363281 47.859375 408.863281 47.859375 409.476562 L 47.859375 412.894531 C 47.859375 413.507812 48.359375 414.007812 48.972656 414.007812 C 49.589844 414.007812 50.089844 413.507812 50.089844 412.894531 Z M 44.742188 412.894531 L 44.742188 409.476562 C 44.742188 408.863281 44.242188 408.363281 43.628906 408.363281 C 43.011719 408.363281 42.511719 408.863281 42.511719 409.476562 L 42.511719 412.894531 C 42.511719 413.507812 43.011719 414.007812 43.628906 414.007812 C 44.242188 414.007812 44.742188 413.507812 44.742188 412.894531 Z M 39.390625 409.476562 C 39.390625 408.863281 38.890625 408.363281 38.277344 408.363281 C 37.664062 408.363281 37.164062 408.863281 37.164062 409.476562 L 37.164062 412.894531 C 37.164062 413.507812 37.664062 414.007812 38.277344 414.007812 C 38.890625 414.007812 39.390625 413.507812 39.390625 412.894531 Z M 40.164062 419.289062 L 72.578125 419.289062 C 73.195312 419.289062 73.695312 418.789062 73.695312 418.175781 C 73.695312 417.558594 73.195312 417.058594 72.578125 417.058594 L 40.164062 417.058594 C 39.546875 417.058594 39.050781 417.558594 39.050781 418.175781 C 39.050781 418.789062 39.546875 419.289062 40.164062 419.289062 Z M 269.472656 220.230469 C 267.445312 220.21875 265.460938 220.730469 263.871094 221.769531 C 263.355469 222.109375 263.210938 222.800781 263.546875 223.316406 C 263.882812 223.824219 264.574219 223.972656 265.089844 223.632812 C 266.289062 222.847656 267.867188 222.402344 269.421875 222.457031 C 270.976562 222.492188 272.527344 222.992188 273.679688 223.828125 C 273.878906 223.972656 274.105469 224.042969 274.332031 224.042969 C 274.679688 224.042969 275.015625 223.882812 275.234375 223.585938 C 275.59375 223.085938 275.484375 222.390625 274.988281 222.03125 C 273.457031 220.914062 271.496094 220.273438 269.472656 220.230469 Z M 241.761719 220.464844 C 239.738281 220.339844 237.730469 220.832031 236.078125 221.8125 C 235.550781 222.128906 235.378906 222.8125 235.695312 223.339844 C 236.007812 223.867188 236.691406 224.039062 237.222656 223.726562 C 238.472656 222.980469 240.078125 222.609375 241.636719 222.6875 C 243.179688 222.773438 244.691406 223.328125 245.789062 224.199219 C 245.992188 224.363281 246.238281 224.441406 246.480469 224.441406 C 246.808594 224.441406 247.128906 224.296875 247.351562 224.023438 C 247.734375 223.539062 247.652344 222.839844 247.175781 222.457031 C 245.707031 221.285156 243.785156 220.578125 241.761719 220.464844 Z M 245.066406 258.40625 C 244.96875 259.011719 245.378906 259.585938 245.984375 259.6875 C 246.261719 259.734375 250.679688 260.449219 255.667969 260.449219 C 258.265625 260.449219 261.019531 260.253906 263.421875 259.671875 C 264.019531 259.523438 264.386719 258.921875 264.238281 258.324219 C 264.09375 257.726562 263.488281 257.355469 262.898438 257.507812 C 256.328125 259.101562 246.445312 257.507812 246.347656 257.492188 C 245.730469 257.378906 245.167969 257.800781 245.066406 258.40625 Z M 127.292969 371.847656 C 127.535156 371.960938 152.003906 383.050781 159.167969 390.640625 C 159.386719 390.871094 159.679688 390.988281 159.972656 390.988281 C 160.25 390.988281 160.527344 390.890625 160.742188 390.6875 C 161.191406 390.265625 161.210938 389.5625 160.789062 389.113281 C 153.332031 381.203125 129.230469 370.28125 128.207031 369.820312 C 127.644531 369.566406 126.988281 369.820312 126.734375 370.375 C 126.480469 370.933594 126.730469 371.597656 127.292969 371.847656 Z M 330.542969 392.636719 C 330.8125 392.636719 331.085938 392.539062 331.304688 392.339844 C 343.285156 381.15625 367.890625 375.984375 368.132812 375.929688 C 368.734375 375.808594 369.125 375.21875 369 374.617188 C 368.878906 374.011719 368.285156 373.628906 367.683594 373.75 C 366.652344 373.960938 342.226562 379.09375 329.78125 390.710938 C 329.332031 391.128906 329.304688 391.835938 329.726562 392.285156 C 329.945312 392.519531 330.242188 392.636719 330.542969 392.636719 Z M 281.691406 213.164062 C 281.800781 210.832031 279.625 209.066406 277.367188 209.644531 L 256.285156 215.09375 C 256.285156 215.09375 242.765625 211.796875 233.972656 209.6875 C 230.589844 208.878906 227.351562 211.457031 227.378906 214.9375 L 227.457031 224.335938 L 228.164062 226.109375 C 228.621094 225.46875 229.371094 225.054688 230.21875 225.054688 L 250.210938 225.054688 C 251.601562 225.054688 252.734375 226.1875 252.734375 227.578125 L 252.734375 227.707031 L 258.308594 227.707031 L 258.308594 227.328125 C 258.308594 226.074219 259.324219 225.054688 260.578125 225.054688 L 281.078125 225.054688 C 281.097656 225.054688 281.113281 225.0625 281.132812 225.0625 Z M 281.121094 231.21875 C 281.097656 231.3125 281.070312 231.410156 281.046875 231.5 L 280.828125 231.609375 L 281.027344 227.328125 L 260.578125 227.28125 L 260.535156 239.652344 L 281.078125 239.695312 L 281.121094 239.652344 Z M 250.503906 227.578125 C 250.503906 227.417969 250.375 227.28125 250.210938 227.28125 L 230.21875 227.28125 C 230.050781 227.28125 229.917969 227.417969 229.917969 227.578125 L 229.917969 239.402344 C 229.917969 239.5625 230.050781 239.695312 230.21875 239.695312 L 250.210938 239.695312 C 250.375 239.695312 250.503906 239.5625 250.503906 239.402344 Z M 287.339844 183.894531 C 292.136719 191.578125 292.691406 204.042969 288.410156 220.363281 C 287.957031 220.109375 287.507812 220.089844 287.0625 220.234375 L 283.347656 229.550781 L 283.347656 239.652344 C 283.347656 240.90625 282.328125 241.925781 281.078125 241.925781 L 260.578125 241.925781 C 259.324219 241.925781 258.308594 240.90625 258.308594 239.652344 L 258.308594 229.933594 L 252.734375 229.933594 L 252.734375 239.402344 C 252.734375 240.792969 251.601562 241.925781 250.210938 241.925781 L 230.21875 241.925781 C 228.828125 241.925781 227.695312 240.792969 227.695312 239.402344 L 227.695312 230.296875 C 227.484375 230.179688 227.3125 229.988281 227.21875 229.75 L 223.46875 220.347656 C 222.695312 219.972656 221.917969 219.910156 221.179688 220.359375 C 218.199219 211.636719 215.484375 199.523438 218.976562 190.335938 C 231.347656 157.75 269.441406 178.882812 269.441406 178.882812 C 269.441406 178.882812 281.714844 174.878906 287.339844 183.894531 Z M 444.277344 80.585938 C 443.9375 81.101562 444.082031 81.792969 444.597656 82.128906 C 444.785156 82.253906 444.996094 82.3125 445.207031 82.3125 C 445.570312 82.3125 445.925781 82.136719 446.136719 81.8125 C 463.628906 55.230469 446.8125 37.136719 446.640625 36.957031 C 446.214844 36.511719 445.511719 36.496094 445.066406 36.921875 C 444.621094 37.347656 444.609375 38.050781 445.035156 38.496094 C 445.195312 38.660156 460.800781 55.472656 444.277344 80.585938 Z M 437.117188 78.75 C 437.304688 78.875 437.519531 78.933594 437.726562 78.933594 C 438.089844 78.933594 438.449219 78.757812 438.660156 78.429688 C 452.378906 57.585938 439.160156 43.363281 439.023438 43.222656 C 438.597656 42.777344 437.898438 42.761719 437.453125 43.1875 C 437.007812 43.609375 436.992188 44.316406 437.414062 44.761719 C 437.910156 45.285156 449.511719 57.890625 436.796875 77.207031 C 436.460938 77.722656 436.601562 78.414062 437.117188 78.75 Z M 429.71875 72.640625 C 429.910156 72.769531 430.121094 72.824219 430.332031 72.824219 C 430.691406 72.824219 431.046875 72.648438 431.257812 72.324219 C 440.203125 58.738281 431.539062 49.421875 431.449219 49.332031 C 431.023438 48.886719 430.324219 48.867188 429.878906 49.292969 C 429.433594 49.714844 429.417969 50.417969 429.835938 50.863281 C 430.148438 51.191406 437.335938 59.042969 429.402344 71.097656 C 429.0625 71.613281 429.207031 72.304688 429.71875 72.640625 Z M 398.394531 83.09375 C 398.609375 83.09375 398.816406 83.035156 399.007812 82.910156 C 399.519531 82.574219 399.664062 81.882812 399.324219 81.367188 C 382.835938 56.3125 397.921875 39.960938 398.570312 39.273438 C 398.992188 38.828125 398.976562 38.125 398.53125 37.703125 C 398.089844 37.277344 397.386719 37.296875 396.960938 37.738281 C 396.789062 37.917969 379.972656 56.011719 397.464844 82.59375 C 397.679688 82.917969 398.03125 83.09375 398.394531 83.09375 Z M 404.945312 79.210938 C 405.160156 79.539062 405.511719 79.714844 405.875 79.714844 C 406.082031 79.714844 406.296875 79.652344 406.484375 79.53125 C 407 79.191406 407.144531 78.503906 406.804688 77.988281 C 394.09375 58.671875 405.6875 46.070312 406.191406 45.542969 C 406.609375 45.097656 406.597656 44.394531 406.152344 43.96875 C 405.707031 43.542969 405.003906 43.558594 404.578125 44.003906 C 404.441406 44.144531 391.222656 58.367188 404.945312 79.210938 Z M 413.269531 73.605469 C 413.480469 73.605469 413.691406 73.550781 413.882812 73.421875 C 414.394531 73.082031 414.539062 72.394531 414.199219 71.878906 C 406.265625 59.824219 413.449219 51.980469 413.765625 51.652344 C 414.1875 51.203125 414.171875 50.5 413.730469 50.074219 C 413.285156 49.648438 412.578125 49.667969 412.152344 50.113281 C 412.0625 50.203125 403.402344 59.523438 412.34375 73.105469 C 412.554688 73.429688 412.910156 73.605469 413.269531 73.605469 Z M 85.507812 402.738281 L 29.523438 402.738281 L 33.617188 406.867188 L 81.414062 406.867188 Z M 87.699219 338.742188 C 87.699219 335.667969 85.207031 333.175781 82.128906 333.175781 C 79.054688 333.175781 76.5625 335.667969 76.5625 338.742188 L 76.5625 357.363281 L 69.265625 357.363281 L 69.265625 327.945312 C 69.265625 323.757812 65.867188 320.359375 61.675781 320.359375 L 54.367188 320.359375 C 50.175781 320.359375 46.78125 323.757812 46.78125 327.945312 L 46.78125 369.457031 L 40.898438 369.457031 L 40.898438 350.835938 C 40.898438 347.757812 38.40625 345.269531 35.328125 345.269531 C 32.257812 345.269531 29.761719 347.757812 29.761719 350.835938 L 29.761719 369.890625 C 29.761719 375.796875 34.5625 380.59375 40.46875 380.59375 L 46.78125 380.59375 L 46.78125 397.019531 L 69.265625 397.019531 L 69.265625 368.5 L 76.992188 368.5 C 82.894531 368.5 87.699219 363.699219 87.699219 357.796875 Z M 450.109375 400.5 L 450.109375 422.890625 L 453.488281 422.890625 C 454.066406 422.890625 454.582031 422.527344 454.773438 421.984375 L 457.960938 412.992188 C 459.269531 409.304688 459.472656 405.34375 458.542969 401.539062 C 458.394531 400.929688 457.851562 400.5 457.222656 400.5 Z M 450.109375 394.933594 L 457.222656 394.933594 C 460.425781 394.933594 463.195312 397.109375 463.953125 400.222656 C 465.136719 405.082031 464.878906 410.144531 463.210938 414.855469 L 460.023438 423.84375 C 459.042969 426.605469 456.417969 428.460938 453.488281 428.460938 L 450.109375 428.460938 L 450.109375 440.582031 C 450.109375 442.777344 448.328125 444.558594 446.132812 444.558594 L 413.457031 444.558594 C 411.257812 444.558594 409.480469 442.777344 409.480469 440.582031 L 409.480469 391.847656 L 450.109375 391.847656 Z M 266.820312 384.046875 C 266.820312 377.367188 260.425781 371.945312 252.539062 371.945312 C 244.652344 371.945312 238.257812 377.367188 238.257812 384.046875 C 238.257812 390.730469 244.652344 396.148438 252.539062 396.148438 C 260.425781 396.148438 266.820312 390.730469 266.820312 384.046875 Z M 317.34375 330.726562 C 317.816406 317.945312 322.578125 308.113281 322.792969 307.675781 C 323.0625 307.125 323.730469 306.894531 324.285156 307.164062 C 324.835938 307.4375 325.0625 308.105469 324.792969 308.65625 C 324.742188 308.761719 320.0625 318.449219 319.574219 330.726562 L 323.761719 330.726562 C 326.683594 330.726562 329.027344 333.140625 328.929688 336.0625 L 325.855469 429.082031 C 325.765625 431.871094 323.476562 434.082031 320.6875 434.082031 L 180.175781 434.082031 C 177.386719 434.082031 175.101562 431.871094 175.007812 429.082031 L 171.933594 336.0625 C 171.839844 333.140625 174.179688 330.726562 177.105469 330.726562 L 184.84375 330.726562 C 185.132812 324.8125 181.070312 315.882812 181.03125 315.792969 C 180.773438 315.230469 181.015625 314.574219 181.574219 314.316406 C 182.136719 314.058594 182.792969 314.304688 183.050781 314.859375 C 183.230469 315.257812 187.332031 324.265625 187.074219 330.726562 L 248.765625 330.726562 L 248.488281 310.652344 C 248.460938 308.683594 249.519531 306.859375 251.25 305.90625 L 253.160156 304.851562 L 240.945312 298.957031 C 238.6875 297.8125 236.707031 296.574219 235.015625 298.269531 L 229.222656 304.089844 C 228.140625 305.175781 226.28125 304.429688 226.25 302.894531 L 225.847656 283.371094 C 225.4375 279.957031 232.964844 265.179688 232.964844 265.179688 C 232.964844 265.179688 236.621094 289.296875 253.683594 304.5625 L 257.386719 302.523438 C 274.03125 289.046875 277.21875 263.65625 277.21875 263.65625 C 277.21875 263.65625 283.820312 277.90625 283.441406 281.316406 L 284.542969 298.816406 C 284.640625 300.363281 282.890625 301.335938 281.628906 300.425781 L 280.203125 299.402344 C 277.464844 297.433594 273.410156 296.976562 270.039062 298.253906 L 260.144531 302.300781 L 260.144531 330.726562 Z M 517.808594 444.808594 L 326.207031 444.808594 L 327.082031 437.722656 C 327.335938 436.742188 326.597656 435.789062 325.585938 435.789062 L 171.5625 435.789062 C 170.117188 435.789062 169.0625 437.15625 169.425781 438.558594 L 170.117188 444.808594 L 73.773438 444.808594 L 75.207031 441.4375 L 38.453125 441.4375 L 39.894531 444.808594 L 7.226562 444.808594 C 3.605469 444.808594 0.671875 447.742188 0.671875 451.359375 L 0.671875 460.230469 C 0.671875 463.851562 3.605469 466.785156 7.226562 466.785156 L 44.164062 466.785156 L 44.164062 497.761719 L 479.449219 497.761719 L 479.449219 466.785156 L 517.808594 466.785156 C 521.425781 466.785156 524.359375 463.851562 524.359375 460.230469 L 524.359375 451.359375 C 524.359375 447.742188 521.425781 444.808594 517.808594 444.808594 Z M 258.382812 249.847656 C 260.796875 248.972656 257.335938 242.195312 255.558594 239.023438 C 255.167969 238.332031 254.214844 238.398438 253.929688 239.128906 C 252.742188 242.203125 250.40625 248.398438 250.425781 249.617188 C 250.453125 251.257812 255.226562 251 258.382812 249.847656 Z M 242.519531 228.921875 C 241.378906 228.921875 240.453125 230.339844 240.453125 232.085938 C 240.453125 233.832031 241.378906 235.246094 242.519531 235.246094 C 243.660156 235.246094 244.585938 233.832031 244.585938 232.085938 C 244.585938 230.339844 243.660156 228.921875 242.519531 228.921875 Z M 268.488281 228.921875 C 267.347656 228.921875 266.417969 230.339844 266.417969 232.085938 C 266.417969 233.832031 267.347656 235.246094 268.488281 235.246094 C 269.625 235.246094 270.550781 233.832031 270.550781 232.085938 C 270.550781 230.339844 269.625 228.921875 268.488281 228.921875 Z M 253.644531 286.042969 C 257.542969 287.230469 273.835938 270.855469 276.925781 264 C 272.59375 269.25 265.375 271.957031 257.226562 271.957031 L 251.695312 271.957031 C 244.589844 271.957031 238.195312 269.898438 233.796875 265.894531 C 239.308594 272.359375 250.441406 285.058594 253.644531 286.042969 Z M 230.660156 262.167969 C 230.660156 262.167969 230.683594 262.199219 230.730469 262.253906 C 230.707031 262.222656 230.695312 262.195312 230.675781 262.167969 Z M 391.851562 112.8125 C 391.851562 114.453125 393.179688 115.78125 394.820312 115.78125 C 396.460938 115.78125 397.789062 114.453125 397.789062 112.8125 C 397.789062 111.171875 396.460938 109.839844 394.820312 109.839844 C 393.179688 109.839844 391.851562 111.171875 391.851562 112.8125 Z M 403.4375 112.8125 C 403.4375 114.453125 404.769531 115.78125 406.40625 115.78125 C 408.050781 115.78125 409.378906 114.453125 409.378906 112.8125 C 409.378906 111.171875 408.050781 109.839844 406.40625 109.839844 C 404.769531 109.839844 403.4375 111.171875 403.4375 112.8125 Z M 415.214844 112.8125 C 415.214844 114.453125 416.546875 115.78125 418.1875 115.78125 C 419.828125 115.78125 421.160156 114.453125 421.160156 112.8125 C 421.160156 111.171875 419.828125 109.839844 418.1875 109.839844 C 416.546875 109.839844 415.214844 111.171875 415.214844 112.8125 Z M 361.367188 112.8125 C 361.367188 111.171875 360.039062 109.839844 358.398438 109.839844 C 356.757812 109.839844 355.429688 111.171875 355.429688 112.8125 C 355.429688 114.453125 356.757812 115.78125 358.398438 115.78125 C 360.039062 115.78125 361.367188 114.453125 361.367188 112.8125 Z M 343.730469 121.003906 L 340.886719 121.003906 L 340.886719 103.8125 L 343.730469 103.8125 L 343.730469 99.664062 C 343.730469 98.921875 344.332031 98.324219 345.070312 98.324219 L 360.894531 98.324219 L 390.199219 91.015625 C 391.21875 90.757812 392.257812 91.378906 392.511719 92.402344 L 393.003906 94.359375 C 393.257812 95.382812 392.636719 96.417969 391.613281 96.675781 L 385.003906 98.324219 L 418.242188 98.324219 L 418.242188 58.847656 C 418.242188 57.792969 419.097656 56.9375 420.148438 56.9375 L 422.167969 56.9375 C 423.222656 56.9375 424.078125 57.792969 424.078125 58.847656 L 424.078125 98.324219 L 434.464844 98.324219 C 435.203125 98.324219 435.804688 98.921875 435.804688 99.664062 L 435.804688 103.8125 L 438.433594 103.8125 L 438.433594 121.003906 L 435.804688 121.003906 L 435.804688 125.960938 C 435.804688 126.699219 435.203125 127.296875 434.464844 127.296875 L 345.070312 127.296875 C 344.332031 127.296875 343.730469 126.699219 343.730469 125.960938 Z M 175.558594 122.886719 L 276.742188 122.886719 L 276.742188 63.132812 L 175.558594 63.132812 Z M 279.378906 93.011719 C 279.378906 94.742188 280.785156 96.148438 282.515625 96.148438 C 284.246094 96.148438 285.65625 94.742188 285.65625 93.011719 C 285.65625 91.28125 284.246094 89.878906 282.515625 89.878906 C 280.785156 89.878906 279.378906 91.28125 279.378906 93.011719 Z M 162.902344 122.902344 L 162.902344 63.117188 C 162.902344 59.65625 165.710938 56.855469 169.171875 56.855469 L 283.183594 56.855469 C 286.644531 56.855469 289.449219 59.65625 289.449219 63.117188 L 289.449219 122.902344 C 289.449219 126.363281 286.644531 129.167969 283.183594 129.167969 L 169.171875 129.167969 C 165.710938 129.167969 162.902344 126.363281 162.902344 122.902344 Z M 15.101562 198.726562 L 15.101562 200.617188 L 16.992188 200.617188 L 16.992188 198.726562 Z M 20.535156 198.726562 L 20.535156 200.617188 L 22.425781 200.617188 L 22.425781 198.726562 Z M 62.054688 188.347656 C 62.054688 187.285156 61.578125 186.566406 60.617188 186.183594 C 61.460938 185.65625 61.886719 184.960938 61.886719 184.09375 C 61.886719 183.292969 61.597656 182.632812 61.015625 182.109375 C 60.433594 181.589844 59.480469 181.332031 58.15625 181.332031 L 55.886719 181.332031 L 55.886719 191.191406 L 58.808594 191.191406 C 59.785156 191.191406 60.570312 190.929688 61.164062 190.40625 C 61.761719 189.886719 62.054688 189.199219 62.054688 188.347656 Z M 54.496094 181.332031 L 49.15625 181.332031 L 49.15625 183.582031 L 50.6875 183.582031 L 50.6875 191.191406 L 52.953125 191.191406 L 52.953125 183.582031 L 54.496094 183.582031 Z M 46.398438 181.332031 L 43.011719 181.332031 L 43.011719 183.402344 L 44.269531 183.402344 L 44.269531 191.191406 L 46.398438 191.191406 Z M 91.824219 255.410156 L 82.828125 255.410156 C 82.9375 255.582031 83.015625 255.769531 83.015625 255.984375 L 83.015625 269.96875 C 83.015625 273.375 81.675781 276.5625 79.25 278.945312 C 76.878906 281.28125 73.757812 282.558594 70.4375 282.558594 C 70.359375 282.558594 70.285156 282.550781 70.207031 282.550781 L 30.507812 281.867188 C 23.800781 281.75 18.371094 276.402344 18.152344 269.695312 L 17.859375 220.207031 L 13.839844 220.207031 C 13.140625 220.207031 12.570312 219.636719 12.570312 218.9375 L 12.570312 204.363281 L 18.375 204.363281 L 18.375 198.726562 L 19.457031 198.726562 L 19.457031 204.363281 L 25.261719 204.363281 L 25.261719 218.9375 C 25.261719 219.636719 24.691406 220.207031 23.996094 220.207031 L 20.085938 220.207031 L 20.375 269.648438 C 20.554688 275.144531 25.023438 279.542969 30.546875 279.636719 L 70.25 280.328125 C 73.03125 280.363281 75.691406 279.320312 77.6875 277.355469 C 79.683594 275.394531 80.785156 272.769531 80.785156 269.96875 L 80.785156 255.984375 C 80.785156 255.769531 80.867188 255.582031 80.96875 255.410156 L 39.628906 255.410156 C 37.488281 255.410156 35.75 253.675781 35.75 251.53125 L 35.75 180.082031 C 35.75 177.941406 37.488281 176.203125 39.628906 176.203125 L 91.824219 176.203125 C 93.96875 176.203125 95.703125 177.941406 95.703125 180.082031 L 95.703125 251.53125 C 95.703125 253.675781 93.96875 255.410156 91.824219 255.410156 Z M 58.308594 187.136719 L 58.121094 187.136719 L 58.121094 189.273438 C 58.6875 189.261719 59.109375 189.175781 59.394531 189.007812 C 59.679688 188.84375 59.816406 188.574219 59.816406 188.191406 C 59.816406 187.488281 59.316406 187.136719 58.308594 187.136719 Z M 59.621094 184.308594 C 59.621094 183.910156 59.5 183.632812 59.261719 183.476562 C 59.023438 183.316406 58.644531 183.234375 58.121094 183.222656 L 58.121094 185.351562 C 59.117188 185.324219 59.621094 184.976562 59.621094 184.308594 Z M 21.742188 126.921875 C 22.519531 127.445312 23.484375 127.609375 24.394531 127.367188 L 26.203125 126.882812 C 26.152344 126.773438 26.101562 126.667969 26.066406 126.546875 L 13.777344 82.90625 C 13.753906 82.828125 13.75 82.746094 13.734375 82.671875 L 11.863281 83.28125 C 11.253906 83.484375 10.714844 83.847656 10.328125 84.359375 C 8.726562 86.46875 5.292969 93.019531 9.082031 107.417969 C 12.226562 119.382812 18.902344 125 21.742188 126.921875 Z M 37.363281 123.367188 C 37.40625 123.539062 37.4375 123.707031 37.449219 123.878906 L 38.117188 123.699219 C 39.863281 123.230469 40.882812 121.421875 40.382812 119.6875 L 29.230469 81.113281 C 28.722656 79.363281 26.863281 78.378906 25.128906 78.945312 L 24.765625 79.066406 C 24.886719 79.269531 25 79.484375 25.070312 79.722656 Z M 91.332031 128.042969 L 93.140625 128.523438 C 94.046875 128.765625 95.011719 128.601562 95.789062 128.074219 C 98.628906 126.15625 105.304688 120.539062 108.453125 108.578125 C 112.242188 94.175781 108.8125 87.628906 107.207031 85.515625 C 106.820312 85.003906 106.28125 84.640625 105.671875 84.441406 L 103.796875 83.832031 C 103.785156 83.910156 103.78125 83.984375 103.753906 84.0625 L 91.464844 127.707031 C 91.429688 127.824219 91.378906 127.933594 91.332031 128.042969 Z M 77.152344 120.847656 L 88.304688 82.273438 C 88.8125 80.519531 90.667969 79.539062 92.402344 80.105469 L 92.765625 80.222656 C 92.644531 80.425781 92.535156 80.644531 92.46875 80.886719 L 80.171875 124.523438 C 80.125 124.695312 80.097656 124.867188 80.085938 125.035156 L 79.414062 124.855469 C 77.671875 124.390625 76.648438 122.582031 77.152344 120.847656 "/></g></g></svg>