<svg xmlns="http://www.w3.org/2000/svg" xmlns:xlink="http://www.w3.org/1999/xlink" width="300" zoomAndPan="magnify" viewBox="0 0 224.87999 119.999999" height="160" preserveAspectRatio="xMidYMid meet" version="1.2"><defs><clipPath id="7fccb5996a"><path d="M 18 39 L 55 39 L 55 81 L 18 81 Z M 18 39 "/></clipPath><clipPath id="603bbf21ad"><path d="M 30.648438 84.578125 L 14.335938 71.917969 L 42.378906 35.78125 L 58.695312 48.441406 Z M 30.648438 84.578125 "/></clipPath><clipPath id="ea10251e41"><path d="M 22.492188 78.246094 C 20.328125 76.570312 18.921875 74.097656 18.578125 71.382812 C 18.234375 68.664062 18.988281 65.921875 20.664062 63.757812 L 36.019531 43.972656 C 37.699219 41.8125 40.167969 40.402344 42.886719 40.058594 C 45.605469 39.71875 48.34375 40.46875 50.507812 42.148438 C 52.671875 43.828125 54.082031 46.296875 54.421875 49.015625 C 54.765625 51.730469 54.015625 54.472656 52.335938 56.636719 L 36.980469 76.421875 C 35.300781 78.585938 32.832031 79.992188 30.113281 80.335938 C 27.398438 80.675781 24.65625 79.925781 22.492188 78.246094 Z M 22.492188 78.246094 "/></clipPath><clipPath id="0260f9e11b"><path d="M 48 39 L 85 39 L 85 81 L 48 81 Z M 48 39 "/></clipPath><clipPath id="60d0208647"><path d="M 60.640625 84.171875 L 44.328125 71.507812 L 72.074219 35.757812 L 88.390625 48.417969 Z M 60.640625 84.171875 "/></clipPath><clipPath id="2fccda1c88"><path d="M 52.484375 77.839844 C 50.320312 76.160156 48.914062 73.691406 48.570312 70.976562 C 48.226562 68.257812 48.980469 65.515625 50.65625 63.351562 L 65.695312 43.976562 C 67.375 41.8125 69.84375 40.402344 72.5625 40.0625 C 75.28125 39.71875 78.019531 40.46875 80.183594 42.148438 C 82.347656 43.828125 83.757812 46.296875 84.097656 49.015625 C 84.441406 51.730469 83.691406 54.472656 82.011719 56.636719 L 66.972656 76.015625 C 65.292969 78.175781 62.824219 79.585938 60.105469 79.929688 C 57.390625 80.269531 54.648438 79.519531 52.484375 77.839844 Z M 52.484375 77.839844 "/></clipPath><clipPath id="6d4a2a12db"><path d="M 4 39 L 40 39 L 40 81 L 4 81 Z M 4 39 "/></clipPath><clipPath id="3df585ca4a"><path d="M 0.00390625 47.335938 L 16.863281 35.414062 L 43.226562 72.695312 L 26.363281 84.621094 Z M 0.00390625 47.335938 "/></clipPath><clipPath id="e22f899c79"><path d="M 8.433594 41.375 C 10.667969 39.792969 13.441406 39.167969 16.140625 39.628906 C 18.839844 40.09375 21.246094 41.609375 22.828125 43.84375 L 37.238281 64.230469 C 38.820312 66.464844 39.449219 69.238281 38.984375 71.9375 C 38.519531 74.636719 37.003906 77.039062 34.769531 78.621094 C 32.53125 80.203125 29.761719 80.832031 27.0625 80.367188 C 24.363281 79.90625 21.957031 78.386719 20.375 76.152344 L 5.964844 55.769531 C 4.382812 53.53125 3.753906 50.757812 4.21875 48.058594 C 4.679688 45.359375 6.195312 42.957031 8.433594 41.375 Z M 8.433594 41.375 "/></clipPath><clipPath id="13aac5393e"><path d="M 34 39 L 70 39 L 70 81 L 34 81 Z M 34 39 "/></clipPath><clipPath id="1c78a4dada"><path d="M 30.710938 47.335938 L 47.574219 35.414062 L 73.9375 72.695312 L 57.074219 84.621094 Z M 30.710938 47.335938 "/></clipPath><clipPath id="b62c84107b"><path d="M 39.144531 41.375 C 41.378906 39.792969 44.152344 39.167969 46.851562 39.628906 C 49.550781 40.09375 51.957031 41.609375 53.535156 43.84375 L 67.949219 64.230469 C 69.53125 66.464844 70.160156 69.238281 69.695312 71.9375 C 69.230469 74.636719 67.714844 77.039062 65.480469 78.621094 C 63.242188 80.203125 60.46875 80.832031 57.769531 80.367188 C 55.070312 79.90625 52.667969 78.386719 51.085938 76.152344 L 36.675781 55.769531 C 35.09375 53.53125 34.464844 50.757812 34.929688 48.058594 C 35.390625 45.359375 36.90625 42.957031 39.144531 41.375 Z M 39.144531 41.375 "/></clipPath><clipPath id="206e4fc164"><path d="M 63.851562 39.886719 L 83.964844 39.886719 L 83.964844 60 L 63.851562 60 Z M 63.851562 39.886719 "/></clipPath><clipPath id="681c4c95d2"><path d="M 73.910156 39.886719 C 68.355469 39.886719 63.851562 44.390625 63.851562 49.941406 C 63.851562 55.496094 68.355469 60 73.910156 60 C 79.464844 60 83.964844 55.496094 83.964844 49.941406 C 83.964844 44.390625 79.464844 39.886719 73.910156 39.886719 Z M 73.910156 39.886719 "/></clipPath><clipPath id="57b537cec7"><path d="M 203 52 L 224.761719 52 L 224.761719 78 L 203 78 Z M 203 52 "/></clipPath></defs><g id="564105d4bc"><g clip-rule="nonzero" clip-path="url(#7fccb5996a)"><g clip-rule="nonzero" clip-path="url(#603bbf21ad)"><g clip-rule="nonzero" clip-path="url(#ea10251e41)"><path style=" stroke:none;fill-rule:nonzero;fill:#ffffff;fill-opacity:1;" d="M 30.648438 84.578125 L 14.335938 71.917969 L 42.328125 35.84375 L 58.644531 48.507812 Z M 30.648438 84.578125 "/></g></g></g><g clip-rule="nonzero" clip-path="url(#0260f9e11b)"><g clip-rule="nonzero" clip-path="url(#60d0208647)"><g clip-rule="nonzero" clip-path="url(#2fccda1c88)"><path style=" stroke:none;fill-rule:nonzero;fill:#ffffff;fill-opacity:1;" d="M 60.640625 84.171875 L 44.328125 71.507812 L 72.023438 35.820312 L 88.339844 48.480469 Z M 60.640625 84.171875 "/></g></g></g><g clip-rule="nonzero" clip-path="url(#6d4a2a12db)"><g clip-rule="nonzero" clip-path="url(#3df585ca4a)"><g clip-rule="nonzero" clip-path="url(#e22f899c79)"><path style=" stroke:none;fill-rule:nonzero;fill:#4f5da3;fill-opacity:1;" d="M 0.00390625 47.335938 L 16.863281 35.414062 L 43.179688 72.628906 L 26.316406 84.554688 Z M 0.00390625 47.335938 "/></g></g></g><g clip-rule="nonzero" clip-path="url(#13aac5393e)"><g clip-rule="nonzero" clip-path="url(#1c78a4dada)"><g clip-rule="nonzero" clip-path="url(#b62c84107b)"><path style=" stroke:none;fill-rule:nonzero;fill:#4f5da3;fill-opacity:1;" d="M 30.710938 47.335938 L 47.574219 35.414062 L 73.890625 72.628906 L 57.027344 84.554688 Z M 30.710938 47.335938 "/></g></g></g><g clip-rule="nonzero" clip-path="url(#206e4fc164)"><g clip-rule="nonzero" clip-path="url(#681c4c95d2)"><path style=" stroke:none;fill-rule:nonzero;fill:#4f5da3;fill-opacity:1;" d="M 63.851562 39.886719 L 83.964844 39.886719 L 83.964844 60 L 63.851562 60 Z M 63.851562 39.886719 "/></g></g><g style="fill:#ffffff;fill-opacity:1;"><g transform="translate(110.026936, 68.824665)"><path style="stroke:none" d="M 22.46875 0 L 18.1875 -15.015625 L 13.90625 0 L 7.125 0 L -0.484375 -26.75 L 6.296875 -26.75 L 10.859375 -8.390625 L 11.015625 -8.390625 L 15.890625 -26.75 L 20.484375 -26.75 L 25.359375 -8.390625 L 25.515625 -8.390625 L 30.09375 -26.75 L 36.828125 -26.75 L 29.21875 0 Z M 22.46875 0 "/></g></g><g style="fill:#ffffff;fill-opacity:1;"><g transform="translate(145.018525, 68.824665)"><path style="stroke:none" d="M 18.765625 -7.515625 L 6.71875 -7.515625 C 6.71875 -6.347656 7.09375 -5.484375 7.84375 -4.921875 C 8.601562 -4.359375 9.425781 -4.078125 10.3125 -4.078125 C 11.238281 -4.078125 11.972656 -4.203125 12.515625 -4.453125 C 13.054688 -4.703125 13.671875 -5.195312 14.359375 -5.9375 L 18.515625 -3.859375 C 16.785156 -0.960938 13.910156 0.484375 9.890625 0.484375 C 7.378906 0.484375 5.226562 -0.375 3.4375 -2.09375 C 1.644531 -3.8125 0.75 -5.878906 0.75 -8.296875 C 0.75 -10.722656 1.644531 -12.800781 3.4375 -14.53125 C 5.226562 -16.257812 7.378906 -17.125 9.890625 -17.125 C 12.523438 -17.125 14.664062 -16.359375 16.3125 -14.828125 C 17.96875 -13.304688 18.796875 -11.128906 18.796875 -8.296875 C 18.796875 -7.910156 18.785156 -7.648438 18.765625 -7.515625 Z M 6.875 -10.703125 L 13.203125 -10.703125 C 13.066406 -11.566406 12.722656 -12.226562 12.171875 -12.6875 C 11.617188 -13.15625 10.910156 -13.390625 10.046875 -13.390625 C 9.097656 -13.390625 8.34375 -13.140625 7.78125 -12.640625 C 7.21875 -12.148438 6.914062 -11.503906 6.875 -10.703125 Z M 6.875 -10.703125 "/></g></g><g style="fill:#ffffff;fill-opacity:1;"><g transform="translate(163.226723, 68.824665)"><path style="stroke:none" d="M 9.171875 -17.125 C 10.128906 -17.125 11.070312 -17.015625 12 -16.796875 C 12.925781 -16.578125 13.617188 -16.359375 14.078125 -16.140625 L 14.75 -15.828125 L 12.875 -12.0625 C 11.570312 -12.75 10.335938 -13.09375 9.171875 -13.09375 C 8.523438 -13.09375 8.066406 -13.019531 7.796875 -12.875 C 7.523438 -12.738281 7.390625 -12.476562 7.390625 -12.09375 C 7.390625 -12.007812 7.398438 -11.921875 7.421875 -11.828125 C 7.441406 -11.742188 7.484375 -11.664062 7.546875 -11.59375 C 7.617188 -11.519531 7.679688 -11.453125 7.734375 -11.390625 C 7.785156 -11.335938 7.875 -11.28125 8 -11.21875 C 8.132812 -11.15625 8.238281 -11.101562 8.3125 -11.0625 C 8.382812 -11.03125 8.507812 -10.984375 8.6875 -10.921875 C 8.863281 -10.859375 8.992188 -10.8125 9.078125 -10.78125 C 9.160156 -10.75 9.304688 -10.695312 9.515625 -10.625 C 9.722656 -10.5625 9.878906 -10.519531 9.984375 -10.5 C 10.648438 -10.3125 11.234375 -10.097656 11.734375 -9.859375 C 12.234375 -9.617188 12.757812 -9.289062 13.3125 -8.875 C 13.863281 -8.46875 14.289062 -7.953125 14.59375 -7.328125 C 14.894531 -6.703125 15.046875 -5.988281 15.046875 -5.1875 C 15.046875 -1.40625 12.421875 0.484375 7.171875 0.484375 C 5.972656 0.484375 4.835938 0.300781 3.765625 -0.0625 C 2.703125 -0.425781 1.929688 -0.796875 1.453125 -1.171875 L 0.75 -1.75 L 3.078125 -5.671875 C 3.253906 -5.523438 3.484375 -5.347656 3.765625 -5.140625 C 4.046875 -4.929688 4.550781 -4.648438 5.28125 -4.296875 C 6.019531 -3.941406 6.660156 -3.765625 7.203125 -3.765625 C 8.390625 -3.765625 8.984375 -4.160156 8.984375 -4.953125 C 8.984375 -5.328125 8.832031 -5.613281 8.53125 -5.8125 C 8.226562 -6.019531 7.710938 -6.253906 6.984375 -6.515625 C 6.265625 -6.773438 5.695312 -7.015625 5.28125 -7.234375 C 4.25 -7.773438 3.425781 -8.382812 2.8125 -9.0625 C 2.207031 -9.738281 1.90625 -10.640625 1.90625 -11.765625 C 1.90625 -13.453125 2.554688 -14.765625 3.859375 -15.703125 C 5.171875 -16.648438 6.941406 -17.125 9.171875 -17.125 Z M 9.171875 -17.125 "/></g></g><g style="fill:#ffffff;fill-opacity:1;"><g transform="translate(177.838481, 68.824665)"><path style="stroke:none" d="M 1.9375 0 L 1.9375 -27.875 L 7.6875 -27.875 L 7.6875 0 Z M 1.9375 0 "/></g></g><g style="fill:#ffffff;fill-opacity:1;"><g transform="translate(186.132166, 68.824665)"><path style="stroke:none" d="M 18.765625 -7.515625 L 6.71875 -7.515625 C 6.71875 -6.347656 7.09375 -5.484375 7.84375 -4.921875 C 8.601562 -4.359375 9.425781 -4.078125 10.3125 -4.078125 C 11.238281 -4.078125 11.972656 -4.203125 12.515625 -4.453125 C 13.054688 -4.703125 13.671875 -5.195312 14.359375 -5.9375 L 18.515625 -3.859375 C 16.785156 -0.960938 13.910156 0.484375 9.890625 0.484375 C 7.378906 0.484375 5.226562 -0.375 3.4375 -2.09375 C 1.644531 -3.8125 0.75 -5.878906 0.75 -8.296875 C 0.75 -10.722656 1.644531 -12.800781 3.4375 -14.53125 C 5.226562 -16.257812 7.378906 -17.125 9.890625 -17.125 C 12.523438 -17.125 14.664062 -16.359375 16.3125 -14.828125 C 17.96875 -13.304688 18.796875 -11.128906 18.796875 -8.296875 C 18.796875 -7.910156 18.785156 -7.648438 18.765625 -7.515625 Z M 6.875 -10.703125 L 13.203125 -10.703125 C 13.066406 -11.566406 12.722656 -12.226562 12.171875 -12.6875 C 11.617188 -13.15625 10.910156 -13.390625 10.046875 -13.390625 C 9.097656 -13.390625 8.34375 -13.140625 7.78125 -12.640625 C 7.21875 -12.148438 6.914062 -11.503906 6.875 -10.703125 Z M 6.875 -10.703125 "/></g></g><g clip-rule="nonzero" clip-path="url(#57b537cec7)"><g style="fill:#ffffff;fill-opacity:1;"><g transform="translate(204.340365, 68.824665)"><path style="stroke:none" d="M 14.5625 -16.625 L 21.171875 -16.625 L 8.109375 8.421875 L 1.484375 8.421875 L 7.234375 -2.59375 L -0.640625 -16.625 L 5.96875 -16.625 L 10.609375 -8.109375 Z M 14.5625 -16.625 "/></g></g></g></g></svg>